<?xml version="1.0" standalone="no"?>
<!DOCTYPE svg PUBLIC "-//W3C//DTD SVG 20010904//EN"
 "http://www.w3.org/TR/2001/REC-SVG-20010904/DTD/svg10.dtd">
<svg version="1.0" xmlns="http://www.w3.org/2000/svg"
 width="214.000000pt" height="130.000000pt" viewBox="0 0 214.000000 130.000000"
 preserveAspectRatio="xMidYMid meet">

<g transform="translate(0.000000,130.000000) scale(0.100000,-0.100000)"
fill="#000000" stroke="none">
<path d="M1240 1250 c-12 -12 -20 -33 -20 -54 0 -28 -6 -38 -35 -55 -19 -11
-35 -27 -35 -36 0 -10 -62 -46 -175 -102 -96 -48 -175 -91 -175 -95 0 -3 30 8
68 26 37 18 120 57 184 86 86 39 118 58 122 74 3 11 19 29 36 38 24 14 30 24
30 52 0 19 7 42 16 50 31 32 46 15 54 -59 l5 -50 45 -5 45 -5 5 -80 5 -80 60
-3 c42 -2 64 -8 73 -19 11 -15 12 -15 12 4 0 26 -18 33 -81 33 l-49 0 0 74 c0
83 -10 99 -63 100 -31 1 -32 3 -38 50 -8 71 -49 96 -89 56z"/>
<path d="M1390 1229 c0 -6 -8 -18 -17 -25 -17 -12 -17 -13 -1 -14 9 0 19 -8
21 -17 4 -17 5 -17 6 0 0 9 9 17 19 18 10 0 12 3 5 6 -7 2 -13 11 -13 18 0 8
-4 17 -10 20 -5 3 -10 1 -10 -6z"/>
<path d="M1365 838 c215 -11 227 -14 242 -58 l12 -35 0 35 c1 66 3 65 -221 66
l-203 1 170 -9z"/>
<path d="M380 771 c-5 -11 -9 -41 -8 -68 l1 -48 4 45 c5 52 17 70 47 70 38 0
46 -19 46 -112 l0 -88 40 0 40 0 0 84 0 84 50 17 c66 22 308 18 355 -5 l30
-15 5 -160 5 -160 8 163 c4 90 5 168 2 172 -25 40 -323 55 -420 22 l-50 -17
-3 -83 c-3 -79 -4 -83 -25 -80 -20 3 -22 9 -25 88 -2 46 -8 90 -14 97 -17 21
-76 16 -88 -6z"/>
<path d="M1450 698 c-82 -15 -134 -18 -239 -15 -137 5 -152 -3 -47 -22 78 -14
198 -13 321 3 152 20 164 14 250 -129 67 -110 170 -246 250 -330 76 -80 75
-77 -28 62 -87 118 -170 249 -221 351 -19 39 -46 78 -58 86 -29 21 -95 19
-228 -6z"/>
<path d="M712 469 c-24 -12 -57 -40 -75 -62 -18 -23 -55 -65 -84 -95 l-52 -54
-63 6 c-188 19 -184 19 -233 -5 -46 -23 -132 -105 -121 -116 3 -3 23 10 45 30
74 67 133 82 244 61 142 -27 166 -17 250 108 34 51 73 96 97 112 22 14 40 28
40 31 0 7 -1 7 -48 -16z"/>
</g>
</svg>
